<!DOCTYPE svg PUBLIC "-//W3C//DTD SVG 20010904//EN" "http://www.w3.org/TR/2001/REC-SVG-20010904/DTD/svg10.dtd">
<svg version="1.0" xmlns="http://www.w3.org/2000/svg" width="1600px" height="1212px" viewBox="0 0 16000 12120" preserveAspectRatio="xMidYMid meet">
<g id="layer1" fill="#555555" stroke="none">
 <path d="M0 6060 l0 -6060 8000 0 8000 0 0 6060 0 6060 -8000 0 -8000 0 0 -6060z m10015 5690 c326 -22 347 -25 406 -53 31 -15 73 -27 95 -28 77 -1 305 -35 354 -53 8 -3 62 -13 120 -22 212 -33 403 -74 550 -117 165 -49 226 -65 275 -72 46 -6 122 -31 538 -174 81 -28 152 -51 158 -51 7 0 59 -21 118 -46 128 -56 129 -56 211 -84 82 -28 274 -125 361 -182 37 -24 100 -70 140 -103 39 -33 97 -79 128 -103 31 -23 83 -68 116 -101 33 -32 103 -90 155 -129 52 -39 135 -111 183 -160 48 -49 131 -124 184 -168 53 -43 122 -106 152 -138 31 -33 99 -103 152 -155 87 -87 255 -298 287 -361 7 -14 37 -54 67 -90 29 -36 93 -120 142 -188 48 -67 119 -162 157 -210 105 -133 119 -155 278 -462 15 -30 28 -59 28 -65 0 -6 15 -40 34 -75 19 -36 43 -90 54 -120 25 -68 72 -236 72 -255 0 -7 14 -49 30 -92 17 -43 35 -96 40 -118 7 -35 72 -265 99 -352 5 -18 12 -113 16 -210 3 -98 11 -212 16 -253 5 -41 10 -169 9 -285 0 -115 5 -237 11 -270 14 -81 13 -1055 -2 -1121 -6 -27 -14 -101 -18 -164 -4 -64 -10 -121 -14 -127 -4 -7 -14 -83 -22 -170 -13 -139 -20 -174 -59 -293 -37 -110 -46 -149 -46 -210 -1 -119 -30 -235 -89 -353 -28 -57 -51 -107 -51 -111 0 -4 -18 -43 -40 -88 -22 -45 -44 -104 -49 -132 -14 -75 -84 -240 -178 -421 -42 -79 -159 -245 -318 -450 -30 -38 -55 -74 -55 -79 0 -13 -87 -132 -150 -205 -31 -36 -71 -86 -89 -111 -38 -54 -110 -130 -121 -130 -4 0 -30 -28 -57 -62 -53 -68 -312 -329 -378 -382 -22 -18 -74 -54 -117 -79 -42 -26 -98 -67 -125 -90 -26 -24 -73 -60 -103 -82 -30 -21 -95 -75 -145 -118 -132 -116 -185 -150 -445 -284 -82 -42 -79 -40 -265 -167 -38 -26 -98 -56 -144 -70 -74 -24 -166 -67 -221 -106 -14 -9 -54 -29 -90 -43 -36 -14 -112 -48 -170 -76 -58 -27 -130 -57 -160 -66 -30 -10 -100 -33 -155 -52 -55 -19 -130 -41 -166 -48 -36 -7 -83 -21 -105 -30 -45 -19 -248 -74 -314 -85 -25 -5 -97 -11 -160 -15 -63 -3 -146 -13 -185 -21 -107 -22 -425 -37 -790 -36 -324 0 -683 13 -703 26 -5 3 -59 13 -118 22 -60 8 -149 22 -199 30 -49 8 -115 19 -146 23 -30 5 -65 14 -77 20 -12 6 -57 15 -99 20 -43 5 -116 19 -163 31 -47 12 -103 27 -125 32 -65 16 -167 48 -202 64 -17 8 -35 14 -41 14 -5 0 -31 9 -58 19 -153 61 -194 76 -244 88 -109 28 -176 42 -245 53 -84 13 -164 28 -225 41 -112 24 -390 48 -615 53 -82 2 -235 12 -340 21 -104 9 -388 23 -630 30 -242 7 -453 16 -470 20 -16 3 -48 11 -70 16 -22 5 -107 14 -190 19 -82 5 -195 17 -250 25 -144 23 -278 29 -348 15 -42 -8 -63 -8 -70 -1 -6 6 -44 11 -83 11 -70 0 -209 37 -284 75 -14 7 -38 19 -55 26 -29 13 -143 78 -189 109 -13 8 -41 27 -63 42 -22 14 -52 47 -67 72 -15 26 -67 89 -116 141 -49 52 -118 138 -153 192 -36 54 -75 109 -88 123 -24 25 -51 81 -65 130 -7 26 -34 90 -62 150 -27 57 -132 221 -173 270 -20 25 -54 77 -74 115 -21 39 -45 81 -55 95 -22 33 -50 90 -50 104 0 6 -7 25 -16 41 -9 17 -55 107 -102 200 -47 94 -106 201 -131 239 -25 38 -62 95 -81 127 -19 32 -79 103 -134 159 -81 83 -108 105 -155 122 -31 12 -72 31 -91 42 -32 19 -53 21 -235 24 -119 1 -209 7 -222 14 -12 6 -36 8 -55 5 -74 -14 -149 -16 -260 -8 -107 7 -123 11 -195 46 -116 57 -196 112 -223 155 -14 20 -65 71 -115 112 -49 42 -108 94 -130 117 -21 22 -44 41 -51 41 -30 0 -149 177 -278 415 -6 11 -19 31 -28 45 -8 14 -30 66 -48 115 -19 50 -37 94 -42 100 -4 5 -8 27 -8 50 0 22 -5 67 -10 100 -6 33 -15 101 -20 150 -5 50 -14 127 -20 172 -10 81 -6 133 21 258 6 28 14 93 20 145 16 164 40 342 56 415 18 81 110 341 153 430 16 33 36 85 45 115 9 30 23 75 31 100 28 87 163 297 243 379 83 83 231 210 271 232 28 15 147 58 260 95 41 13 83 32 95 42 30 27 140 76 225 102 41 12 93 29 115 39 61 25 302 147 333 169 15 11 61 31 102 45 97 33 191 71 315 127 22 10 63 28 90 40 28 11 59 25 70 30 50 23 99 40 112 40 8 0 39 11 68 25 30 13 67 27 82 31 29 6 85 28 115 44 10 6 23 10 30 10 7 1 31 9 53 20 22 11 44 19 49 20 6 0 19 8 30 19 27 24 235 111 351 146 50 15 94 31 100 36 5 5 16 9 25 9 8 0 87 37 175 81 88 45 195 94 238 109 43 15 81 31 84 34 4 3 16 6 27 6 12 0 62 20 111 44 50 24 128 62 175 84 47 22 150 80 230 128 80 47 171 101 204 118 32 17 88 58 125 92 36 33 99 86 138 117 89 70 172 154 249 250 83 103 117 141 203 233 42 44 103 112 136 150 67 77 320 313 435 405 134 107 252 213 284 253 25 31 301 251 365 291 25 16 92 70 146 120 50 45 165 126 259 181 74 44 198 113 226 126 14 6 58 26 98 45 40 18 78 33 85 33 7 0 21 6 32 14 37 25 358 143 505 186 73 21 279 82 355 105 154 46 342 88 430 96 55 5 114 14 130 21 19 7 126 13 284 15 140 2 257 6 260 8 7 7 108 5 266 -5z"/>
 </g>

</svg>